HIERARCHY
ROOT Hips
{
  OFFSET 17.062 93.0766 -247.583
  CHANNELS 6 Xposition Yposition Zposition Zrotation Xrotation Yrotation
  JOINT ToSpine
  {
    OFFSET -0.0105055 1.38907 -7.13956
    CHANNELS 3 Zrotation Xrotation Yrotation
    JOINT Spine
    {
      OFFSET 0.0105055 10 1
      CHANNELS 3 Zrotation Xrotation Yrotation
      JOINT Spine1
      {
        OFFSET 0 12 1.60637
        CHANNELS 3 Zrotation Xrotation Yrotation
        JOINT Neck
        {
          OFFSET 0 27 2.26658
          CHANNELS 3 Zrotation Xrotation Yrotation
          JOINT Head
          {
            OFFSET 0 9 2.12705
            CHANNELS 3 Zrotation Xrotation Yrotation
            End Site
            {
              OFFSET 0 11 2
            }
          }
        }
        JOINT LeftShoulder
        {
          OFFSET 8 19.6109 2.86452
          CHANNELS 3 Zrotation Xrotation Yrotation
          JOINT LeftArm
          {
            OFFSET 12 1 0.681055
            CHANNELS 3 Zrotation Xrotation Yrotation
            JOINT LeftForeArm
            {
              OFFSET 19 0 -1.52608
              CHANNELS 3 Zrotation Xrotation Yrotation
              JOINT LeftHand
              {
                OFFSET 23 0 0
                CHANNELS 3 Zrotation Xrotation Yrotation
                End Site
                {
                  OFFSET 10 0 0
                }
              }
            }
          }
        }
        JOINT RightShoulder
        {
          OFFSET -8 19.6109 2.86452
          CHANNELS 3 Zrotation Xrotation Yrotation
          JOINT RightArm
          {
            OFFSET -12 1 0.681055
            CHANNELS 3 Zrotation Xrotation Yrotation
            JOINT RightForeArm
            {
              OFFSET -19 0 -1.52608
              CHANNELS 3 Zrotation Xrotation Yrotation
              JOINT RightHand
              {
                OFFSET -23 0 0
                CHANNELS 3 Zrotation Xrotation Yrotation
                End Site
                {
                  OFFSET -10 0 0
                }
              }
            }
          }
        }
      }
    }
  }
  JOINT LeftUpLeg
  {
    OFFSET 9 -7.17245 0
    CHANNELS 3 Zrotation Xrotation Yrotation
    JOINT LeftLeg
    {
      OFFSET 0 -44.1113 0
      CHANNELS 3 Zrotation Xrotation Yrotation
      JOINT LeftFoot
      {
        OFFSET 0 -36.1829 0
        CHANNELS 3 Zrotation Xrotation Yrotation
        JOINT LeftToeBase
        {
          OFFSET 0 -4.84184 13
          CHANNELS 3 Zrotation Xrotation Yrotation
          End Site
          {
            OFFSET 0 1 6
          }
        }
      }
    }
  }
  JOINT RightUpLeg
  {
    OFFSET -9 -7.17245 0
    CHANNELS 3 Zrotation Xrotation Yrotation
    JOINT RightLeg
    {
      OFFSET 0 -44.0551 0
      CHANNELS 3 Zrotation Xrotation Yrotation
      JOINT RightFoot
      {
        OFFSET 0 -36.1469 0
        CHANNELS 3 Zrotation Xrotation Yrotation
        JOINT RightToeBase
        {
          OFFSET 0 -4.92256 13
          CHANNELS 3 Zrotation Xrotation Yrotation
          End Site
          {
            OFFSET 0 1 6
          }
        }
      }
    }
  }
}
MOTION
Frames:	12
Frame Time:	0.0333333
17.062 93.0766 -247.583 -12.0245 13.7809 10.342 0 0 0 5.70136 0.341629 -14.3093 16.3539 8.10095 -18.4579 10.4147 -34.0019 18.5191 -1.13119 16.981 16.3635 -7.52114 1.68322 -7.60573 -16.0095 4.62598 -44.2172 22.7536 -5.02076 -101.787 -6.35725 -0.0838803 1.51033 11.0175 3.66917 16.4149 51.6135 10.7336 -47.9865 -7.08899 5.20487 53.8906 11.6886 0.503491 4.91597 12.1043 19.8358 4.62831 1.04966 23.1329 -20.5406 17.8142 9.87662 -1.55164 1.33136 -18.971 -0.550597 2.76005 -48.7725 -19.187 -7.15246e-007 34.4689 11.7268 -24.9182 -13.2401 -2.9378 3.38582 -12.4031 -4.11714 
17.3493 90.8732 -238.82 -6.38022 12.8345 -1.41589 0 0 0 5.73524 8.50228 -9.38979 9.4959 0.164934 -10.2328 10.0975 -31.84 17.3305 -1.32166 14.8779 15.7408 -11.5532 2.49117 -9.74336 -16.4223 9.68346 -42.0138 26.1806 -4.34203 -98.7545 -6.65713 -0.0372971 0.64128 15.9609 4.25186 15.0417 45.6755 7.13774 -41.62 -11.1635 8.62077 52.7811 9.85743 0.384448 4.4559 1.18979 16.3253 9.39167 -3.15619e-007 45.3505 -17.7663 18.6897 6.42635 -1.0586 1.6519 -21.4645 -3.51783 6.66052 -48.5989 -9.99454 1.25213e-007 36.7368 9.23615 -20.4861 -12.7692 -2.31672 3.63018 -13.3882 -6.69082 
17.2718 89.9534 -229.974 -5.2771 10.7237 -7.27133 0 0 0 6.81254 13.3213 -6.02185 6.37285 -3.84816 -6.03954 6.53328 -26.0793 14.6089 -1.20459 10.1995 13.914 -18.708 3.28866 -9.45727 -16.4646 15.5726 -40.4441 30.7522 -1.56788 -92.633 -7.63306 0.0787587 -1.18058 18.5298 4.62078 14.7547 41.355 -0.836873 -35.4273 -15.3311 11.4152 54.1735 9.31521 0.318676 3.91007 -0.404813 9.66208 15.4008 9.48192e-007 65.4401 -13.1482 20.4692 6.67432 -1.20638 1.82822 -26.0265 -1.91452 9.49678 -45.3616 -5.92341 4.59789e-008 42.0135 9.11717 -24.9931 1.74331 0.3864 4.54905 -18.9468 -12.4604 
16.7435 88.1415 -221.021 -6.70363 9.66401 -8.38574 0 0 0 8.83441 14.3843 -4.3266 5.0777 -6.22381 -3.82614 1.61357 -20.936 12.9997 0.738735 7.37559 11.8925 -27.2402 3.74819 -7.69991 -18.6856 21.0245 -35.5248 32.6832 1.86169 -87.1012 -7.5881 -0.00120027 0.0180993 19.7992 4.57793 13.7878 39.8114 -8.59379 -27.3149 -13.6023 9.81252 54.8418 7.47041 0.274603 4.2044 4.11777 -0.144557 17.042 -1.1028e-006 85.7094 -1.85772 20.8373 -2.99182 0.550231 1.85648 -26.3418 -4.16147 11.3718 -43.7901 -3.52513 1.83317e-007 55.5814 5.19826 -27.449 -12.1831 -2.98604 3.79098 -14.1745 -9.03811 
16.4 86.7224 -212.782 -8.47262 8.49471 -8.8753 0 0 0 11.8982 14.2121 -3.36881 1.56075 -4.44189 -2.35057 2.09561 -20.7103 12.2355 0.188941 8.04917 11.3948 -31.1539 3.8824 -6.9078 -26.1118 21.7256 -22.9163 34.2832 1.74194 -87.4469 -7.92252 -0.114032 1.64661 23.7786 5.03408 13.1489 39.8619 -14.4457 -13.1736 -12.3669 8.47242 56.1004 5.33732 0.122543 2.62862 9.24937 -13.0231 16.2639 180 78.6509 -175.385 25.8167 -10.0669 2.31282 1.79728 -25.1194 -3.21202 12.546 -38.2971 -3.63857 3.58946e-008 61.4685 2.89559 -32.5336 -19.9804 -5.88476 4.1757 -16.1676 -8.88993 
15.9124 86.0776 -204.513 -8.51639 7.11438 -9.69265 0 0 0 11.7729 15.2788 -1.99739 0.00581792 -3.52621 -0.838524 1.75844 -19.9403 11.1208 -0.0310926 7.48448 10.442 -32.1277 3.58944 -5.8818 -36.3915 18.4516 -4.00861 34.7343 -1.36468 -91.9674 -7.44933 -0.101691 1.56199 23.9678 5.40529 14.2547 44.8652 -16.0488 1.41779 -6.09907 4.04971 56.5382 -1.07669 -0.0247552 2.63414 12.8203 -27.3028 14.3679 -180 72.0795 -174.952 25.6031 -17.9427 4.10887 1.64177 -18.8219 -4.78773 11.6295 -30.9543 -3.81298 2.21105e-008 63.9731 0.614385 -32.7773 -28.8351 -8.64763 4.23719 -16.4822 -8.8697 
15.7024 85.6205 -195.864 -5.86921 6.57114 -10.806 0 0 0 10.4181 15.0169 0.238331 -3.4199 -3.39993 1.82739 2.07609 -17.5325 8.63508 -0.421484 6.54975 8.41173 -30.3163 3.11868 -5.05706 -43.1313 17.6691 13.1379 34.2394 -5.26866 -97.6838 -7.34329 -0.0628312 0.979111 23.2356 5.64889 15.4721 48.0209 -13.2793 11.8793 0.195492 -0.111891 60.2151 -0.986153 -0.0391269 4.54407 12.7126 -41.3959 14.0338 180 76.3571 -169.75 30.7224 -19.9583 5.53471 1.6539 -22.8596 -2.07162 6.79515 -23.8264 -5.98839 -1.61441e-008 64.2665 0.826904 -36.5241 -34.1084 -11.5604 4.51455 -17.9341 -9.01738 
15.4016 86.3174 -185.768 -4.4866 4.84017 -10.3372 0 0 0 11.6818 14.5041 2.66211 -8.27672 -2.33973 5.2246 3.03611 -16.0401 4.78823 0.0367748 7.06214 4.91086 -29.806 2.93533 -4.668 -42.0935 19.5042 25.1373 33.6479 -8.37168 -102.339 -8.67021 -0.0187194 0.246936 20.1757 5.10138 15.483 50.2465 -9.47801 17.9498 2.03129 -0.784664 68.8877 2.41092 0.119374 5.66842 12.4972 -49.4909 13.3581 180 89.1919 -167.149 29.7577 -18.1062 4.84806 1.60863 -22.1029 -1.98283 2.5796 -12.3904 -9.63581 -2.04255e-007 59.4555 3.32605 -37.1533 -33.4873 -11.547 5.50829 -23.6024 -10.3567 
14.9095 87.8607 -174.154 -3.00691 2.72374 -10.8753 0 0 0 12.4401 12.5697 6.57858 -13.0854 -0.0058818 10.0065 5.70782 -14.1287 -0.198869 -0.480672 7.39146 0.932874 -27.3544 2.68291 -4.50034 -42.4529 21.6743 34.2725 35.4598 -11.0528 -105.065 -9.21461 0.0525515 -0.652106 16.6813 4.25433 14.5359 50.7673 -5.32517 20.0176 -3.05847 0.568308 79.4836 3.2247 0.160428 5.69471 12.8275 -49.9255 16.9034 -2.08784e-006 70.9296 10.0076 29.046 -13.3306 3.46785 1.69103 -21.9234 -3.9561 -1.07354 0.173883 -10.6921 3.8169e-007 51.3188 6.9687 -31.2857 -24.9444 -7.08812 7.86983 -32.5154 -6.81399 
14.2553 89.2354 -161.253 -2.21996 0.158676 -8.11563 0 0 0 13.1389 8.67091 9.33626 -16.2575 3.83621 13.1289 10.6667 -12.5255 -4.60625 -1.72707 7.93243 -1.83549 -21.6071 2.37947 -4.98571 -45.7615 21.3139 41.9462 38.3011 -13.2131 -106.141 -9.16908 0.13429 -1.6746 12.9344 3.56639 14.2137 50.579 -0.937968 19.9965 -4.44317 0.151285 88.0538 3.81723 0.171892 5.15474 9.13441 -45.2736 18.3445 -6.34147e-009 47.3106 -0.15176 23.5064 -4.28646 0.892231 1.59444 -21.6308 -2.22142 -4.11791 15.9998 -14.8939 4.66814e-007 37.7902 17.0621 -21.4992 -12.2441 -2.33309 8.7684 -33.2317 -3.01266 
13.8636 89.7837 -147.839 -1.51799 -1.35899 -5.9798 0 0 0 13.2057 4.44254 12.9453 -17.0261 5.34149 16.1768 13.7469 -7.1213 -9.06372 -1.22138 6.83022 -5.1016 -15.9639 2.30293 -6.59893 -48.6697 19.507 48.4998 37.4792 -14.3657 -107.931 -9.79624 0.32601 -3.80282 9.59739 3.03905 14.2718 51.2495 3.76026 16.4856 -3.24018 -0.27249 94.802 4.48697 0.251005 6.40041 5.60721 -38.8953 24.7865 -0.0687662 25.1991 -11.7251 15.9784 3.94497 -0.553884 1.44633 -18.8513 -2.18132 -4.6422 29.5198 -12.3803 0.117836 25.8498 19.9389 -21.1825 -2.58999 -0.484374 4.82573 -19.3227 -8.2228 
13.7202 88.8905 -136.178 -3.45681 -2.18474 -7.3329 0 0 0 16.5454 -0.98797 15.8773 -17.132 9.9453 18.5047 13.8439 -1.89874 -10.444 -0.685729 4.90499 -6.10193 -15.1681 1.89992 -5.11287 -47.6668 16.4227 54.4982 37.1918 -17.7425 -111.88 -8.32952 0.350936 -4.81659 5.30271 2.24636 13.4811 52.9577 10.7698 18.0182 -1.79759 -0.207646 96.5871 6.37178 0.415751 7.45874 7.75647 -35.1772 11.9911 -6.16844 13.5221 6.78064 13.4915 6.12656 -0.725348 1.34508 -17.2244 -1.99168 -3.13665 34.5805 -1.32057 -2.5266e-007 29.4511 5.01787 -23.931 -11.415 -2.42683 4.86663 -19.4176 -7.80821 
